<?xml version="1.0" encoding="utf-8"?>
<!-- Generator: Adobe Illustrator 22.1.0, SVG Export Plug-In . SVG Version: 6.00 Build 0)  -->
<svg version="1.1" id="Layer_1" xmlns="http://www.w3.org/2000/svg" xmlns:xlink="http://www.w3.org/1999/xlink" x="20px" y="0px"
	 viewBox="0 0 162 154.3" style="enable-background:new 0 0 162 154.3;" xml:space="preserve">
<style type="text/css">
	.st0{fill:white;}
	.st1{fill:white;}

</style> 
<title>Asset 48xhdpi</title>
<g>
	<path class="st0" d="M0.5,55.9c-1.3,10.9,0,22.6,4.7,34.4l0.1,0.2c5-5.7,15.1-12.8,10.4-22.3c-3.3-1.1-7.2-1.5-8.6-4.4
		c-0.4-7.4,4.9-12.6,8.6-17.6c5.6-7.5,10.3-15.3,17.7-21.1h-4.1c2.4-2.7,6-0.8,9.6-1.3c1.5-0.2,2.9-1.3,4.6-1.8
		c12.2-3.1,29.4-3.5,41.9-1.8c5.2,6.2-0.7,13.6-4.6,17.6c0.6,2.9,3.4,3.8,4.1,6.6c-0.6,3.3-2,4.2-1.8,7c0.4,6.8,13.4,16.3,1.4,18.4
		c-0.5,2.8,2.2,3.4,2.7,5.7c0.5,1.9-0.5,4.1,0,6.1c1.5,5.7,11.5,10,11.4,18c-2,3.5-7.9,3.2-12.7,4c0.8,8.6,6.1,12.9,9.6,18.9
		c7.6-3.7,14.9-8.8,21.1-15.3c1-1.1,1.9-2.2,2.9-3.3c1.1-1.3,2.2-2.5,3.1-3.9c6.9-10.1,10.9-22.1,11-35c0-0.2,0-0.5,0-0.7
		c0-3-0.5-6-0.9-8.9c-0.4-2.5-0.8-4.9-1.5-7.2c-0.8-2.9-1.6-5.9-2.8-8.7l-0.1-0.2C118.1,16.3,94.3,0.1,66.7,0c-0.2,0-0.4,0-0.6,0
		C37.6,0.2,13.5,17.6,4,42c-1.5,4.3-2.9,8.6-3.5,13.2C0.5,55.5,0.5,55.7,0.5,55.9"/>
	<path class="st1" d="M78.2,103.5h-1.4v5.9l-4.8-5.9h-0.5v10.3h1.4v-5.9l4.8,6h0.5V103.5z M69.6,103.5h-2v10.2h2V103.5z M65.8,111.7
		l-0.1-0.1c-0.3,0.4-0.7,0.6-1.2,0.6h-1.7v-3h2.2v-1.4h-2.2V105h1.7c0.5,0,0.9,0.2,1.2,0.5l0.1-0.1v-2h-5.1v10.2h5.1V111.7z
		 M59.3,103.5H53v2l0.1,0.1c0.3-0.4,0.7-0.5,1.2-0.5h0.9v8.7h2V105H58c0.5,0,0.9,0.2,1.2,0.5l0.1-0.1V103.5z M50.2,107.8l-1-0.7
		c-0.8-0.6-1.3-1.1-1.3-1.6c0-0.2,0.1-0.4,0.2-0.6c0.2-0.2,0.4-0.2,0.6-0.2c0.3,0,0.7,0.1,1.2,0.4c0.5,0.4,1,0.8,1.4,1.4h0.2v-2.4
		c-0.6-0.6-1.4-0.9-2.5-0.9c-0.8,0-1.5,0.2-2,0.7c-0.5,0.5-0.8,1.2-0.8,2c0,0.6,0.1,1.2,0.4,1.6c0.3,0.4,0.7,0.9,1.3,1.3l1.1,0.8
		c0.9,0.7,1.4,1.3,1.4,1.9c0,0.5-0.3,0.8-0.9,0.8c-1,0-2-0.7-3-2h-0.2v2.5c0.8,0.7,1.7,1,2.8,1c0.9,0,1.6-0.3,2.2-0.8
		c0.6-0.5,0.8-1.2,0.8-2.1C52.1,109.7,51.4,108.6,50.2,107.8z M42.5,107.9c-0.1,0.2-0.4,0.3-0.7,0.3h-1.4v-3.2h1.3
		c0.4,0,0.6,0.1,0.8,0.4c0.2,0.3,0.3,0.7,0.3,1.4C42.7,107.2,42.6,107.6,42.5,107.9z M45.3,113.5l-2.3-4.1c1.2-0.4,1.8-1.3,1.8-2.8
		c0-2.1-1-3.1-2.9-3.1h-3.5v10.2h1.9v-4.1h0.8l1.7,4.1h2.4V113.5z M36.6,111.7l-0.1-0.1c-0.3,0.4-0.7,0.6-1.2,0.6h-1.7v-3h2.2v-1.4
		h-2.2V105h1.7c0.5,0,0.9,0.2,1.2,0.5l0.1-0.1v-2h-5.1v10.2h5.1V111.7z M29.7,103.5h-2v7.3c0,0.4-0.1,0.8-0.4,1
		c-0.2,0.2-0.7,0.3-1.2,0.3c-0.6,0-1.1-0.1-1.3-0.3s-0.3-0.5-0.3-1v-7.3h-2v6.7c0,2.5,1.2,3.7,3.6,3.7c1.1,0,1.9-0.3,2.6-0.9
		c0.7-0.7,1-1.6,1-2.8V103.5z M20.7,111.7l-0.1-0.1c-0.3,0.4-0.7,0.6-1.2,0.6h-1.7v-3h2.2v-1.4h-2.2V105h1.7c0.5,0,0.9,0.2,1.2,0.5
		l0.1-0.1v-2h-5.1v10.2h5.1V111.7z M14.4,103.5l-4.9,0v10.2h2v-4.5h2.4v-1.4h-2.4V105h1.6c0.5,0,0.9,0.2,1.2,0.5l0.1-0.1V103.5z"/>
	<path class="st1" d="M162,130.1h-3.5v1.3h1.5v1.7c0,0.8-0.5,1.2-1.5,1.2c-1.2,0-1.8-1.2-1.8-3.7c0-1.3,0.2-2.2,0.5-2.8
		c0.3-0.6,0.8-0.9,1.5-0.9c0.4,0,0.9,0.2,1.5,0.5c0.6,0.4,1.1,0.8,1.5,1.4h0.1V126c-0.4-0.2-0.9-0.4-1.6-0.6
		c-0.6-0.1-1.1-0.2-1.6-0.2c-1.3,0-2.3,0.5-3,1.4c-0.7,0.9-1.1,2.3-1.1,3.9c0,3.5,1.3,5.2,3.9,5.2c1,0,1.8-0.3,2.5-0.8l0.9,0.7h0.2
		V130.1z M152.7,125.5h-1.4v5.9l-4.8-5.9H146v10.3h1.4v-5.9l4.8,6h0.5V125.5z M143.8,125.5h-2v10.2h2V125.5z M139.5,125.5h-1.4v5.9
		l-4.8-5.9h-0.5v10.3h1.4v-5.9l4.8,6h0.5V125.5z M128.5,129.9c-0.1,0.2-0.4,0.3-0.7,0.3h-1.4v-3.2h1.3c0.4,0,0.6,0.1,0.8,0.4
		c0.2,0.3,0.3,0.7,0.3,1.4C128.7,129.2,128.7,129.6,128.5,129.9z M131.3,135.5l-2.3-4.1c1.2-0.4,1.8-1.3,1.8-2.8
		c0-2.1-1-3.1-2.9-3.1h-3.5v10.2h1.9v-4.1h0.8l1.7,4.1h2.4V135.5z M118.7,131.7l0.9-4.3h0.1l0.9,4.3H118.7z M120.6,125.5h-2.1
		l-2.7,10l0.1,0.2h2l0.5-2.4h2.4l0.5,2.4h1.6l0.1-0.2L120.6,125.5z M114.4,133.7l-0.1-0.1c-0.3,0.4-0.7,0.6-1.2,0.6h-1.7v-3h2.2
		v-1.4h-2.2V127h1.7c0.5,0,0.9,0.2,1.2,0.5l0.1-0.1v-2h-5.1v10.2h5.1V133.7z M107.7,133.5l-0.2-0.1c-0.4,0.5-0.7,0.7-1.1,0.7h-1.6
		v-8.7h-2v10.2h4.9V133.5z M95.4,133.5c-0.3,0.4-0.7,0.6-1.3,0.6h-1.6v-7.1H94c0.7,0,1.2,0.3,1.5,0.9c0.3,0.6,0.4,1.5,0.4,2.8
		C95.9,132.1,95.7,133,95.4,133.5z M96.9,126.7c-0.7-0.8-1.7-1.3-2.9-1.3h-3.5v10.2H94c1.3,0,2.4-0.5,3.1-1.4c0.7-0.9,1-2.1,1-3.7
		C98.1,128.9,97.7,127.7,96.9,126.7z M88.2,125.5h-1.4v5.9l-4.8-5.9h-0.5v10.3h1.4v-5.9l4.8,6h0.5V125.5z M75.7,131.7l0.9-4.3h0.1
		l0.9,4.3H75.7z M77.6,125.5h-2.1l-2.7,10l0.1,0.2h2l0.5-2.4h2.4l0.5,2.4H80l0.1-0.2L77.6,125.5z M68.4,130.1H65v1.3h1.5v1.7
		c0,0.8-0.5,1.2-1.5,1.2c-1.2,0-1.8-1.2-1.8-3.7c0-1.3,0.2-2.2,0.5-2.8c0.3-0.6,0.8-0.9,1.5-0.9c0.4,0,0.9,0.2,1.5,0.5
		c0.6,0.4,1.1,0.8,1.5,1.4h0.1V126c-0.4-0.2-0.9-0.4-1.6-0.6c-0.6-0.1-1.1-0.2-1.6-0.2c-1.3,0-2.3,0.5-3,1.4
		c-0.7,0.9-1.1,2.3-1.1,3.9c0,3.5,1.3,5.2,3.9,5.2c1,0,1.8-0.3,2.5-0.8l0.9,0.7h0.2V130.1z M59.1,125.5h-1.4v5.9l-4.8-5.9h-0.5v10.3
		h1.4v-5.9l4.8,6h0.5V125.5z M50.2,125.5h-2v10.2h2V125.5z M46.7,135.5l-3.3-5.9l2.9-4v-0.2h-2l-2.7,4.3v-4.3h-1.9v10.2h1.9v-4
		l0.5-0.6l2.3,4.5h2.4V135.5z M37.3,125.5h-1.4v5.9l-4.8-5.9h-0.5v10.3H32v-5.9l4.8,6h0.5V125.5z M28.4,125.5h-2v10.2h2V125.5z
		 M24.1,125.5h-2v4.2H19v-4.2h-2v10.2h2v-4.1c0-0.2,0.1-0.3,0.2-0.4c0.1,0,0.6-0.1,1.3-0.1c0.8,0,1.2,0,1.3,0c0.2,0,0.3,0.2,0.3,0.4
		v4.1h2V125.5z M15.3,125.5H8.9v2l0.1,0.1c0.3-0.4,0.7-0.5,1.2-0.5h0.9v8.7h2V127H14c0.5,0,0.9,0.2,1.2,0.5l0.1-0.1V125.5z"/>
	<path class="st0" d="M160.4,150.2V143h-1.5v7.6c0,0.4,0,0.7,0,0.8c0,0.2,0.1,0.3,0.3,0.3h1.5l0.1-0.1
		C160.5,151.3,160.4,150.9,160.4,150.2z M155.7,150.3c-0.2,0.2-0.5,0.3-0.9,0.3c-0.2,0-0.4-0.1-0.5-0.2c-0.1-0.2-0.2-0.3-0.2-0.5
		c0-0.4,0.2-0.7,0.6-0.8c0.3-0.1,0.6-0.2,1-0.2v1.2C155.8,150.2,155.7,150.3,155.7,150.3z M157.3,148c0-1.8-0.8-2.6-2.4-2.6
		c-0.8,0-1.4,0.2-1.9,0.5v1.8h0.1c0.2-0.3,0.5-0.5,0.9-0.7c0.4-0.2,0.7-0.3,1-0.3c0.5,0,0.8,0.3,0.8,1v0.2c-2.1,0-3.1,0.8-3.1,2.2
		c0,0.6,0.2,1.1,0.6,1.4c0.3,0.3,0.8,0.4,1.3,0.4c0.7,0,1.4-0.2,2.1-0.6l0.5,0.4h0.2V148z M151.3,145.6h-1.6v6.1h1.6V145.6z
		 M151.2,143c-0.2-0.2-0.4-0.3-0.6-0.3c-0.3,0-0.5,0.1-0.6,0.3c-0.2,0.2-0.2,0.4-0.2,0.7c0,0.3,0.1,0.5,0.2,0.7
		c0.2,0.2,0.4,0.3,0.6,0.3c0.3,0,0.5-0.1,0.6-0.3c0.2-0.2,0.2-0.4,0.2-0.7C151.4,143.4,151.3,143.2,151.2,143z M148.2,149.8h-0.1
		c-0.1,0.2-0.2,0.3-0.4,0.5c-0.1,0.1-0.3,0.2-0.4,0.2c-0.2,0-0.3-0.1-0.3-0.4v-3.2h1.1v-1.3h-1.1V144h-0.3c-0.6,1-1.2,1.8-1.9,2.4
		v0.4h0.6v3c0,1.4,0.5,2.2,1.5,2.2c0.5,0,0.9-0.1,1.2-0.4V149.8z M143.7,147.6c0-1.4-0.7-2.2-2.1-2.2c-0.6,0-1.2,0.2-1.9,0.5
		l-0.5-0.5h-0.2v6.2h1.6v-4.5c0.3-0.4,0.6-0.6,1.1-0.6c0.4,0,0.6,0.3,0.6,0.8v4.3h1.6V147.6z M135.1,148.1c-0.4,0-0.6,0-0.7,0
		c0-1.1,0.2-1.6,0.7-1.6c0.3,0,0.4,0.1,0.6,0.4c0.1,0.3,0.2,0.7,0.2,1.2C135.7,148.1,135.5,148.1,135.1,148.1z M137.5,148.4
		c0-0.9-0.2-1.7-0.7-2.2c-0.4-0.5-1-0.8-1.7-0.8c-0.7,0-1.2,0.3-1.7,0.8c-0.5,0.6-0.8,1.4-0.8,2.4c0,1.1,0.3,1.9,0.8,2.5
		c0.5,0.5,1,0.8,1.7,0.8c0.9,0,1.6-0.3,2-0.8v-1.5H137c-0.6,0.7-1.2,1.1-1.7,1.1c-0.3,0-0.5-0.1-0.7-0.4s-0.3-0.7-0.3-1.1h1.3
		C136.5,149.1,137.1,148.9,137.5,148.4L137.5,148.4z M131.5,149.8h-0.1c-0.1,0.2-0.2,0.3-0.4,0.5c-0.1,0.1-0.3,0.2-0.4,0.2
		c-0.2,0-0.3-0.1-0.3-0.4v-3.2h1.1v-1.3h-1.1V144h-0.3c-0.6,1-1.2,1.8-1.9,2.4v0.4h0.6v3c0,1.4,0.5,2.2,1.5,2.2
		c0.5,0,0.9-0.1,1.2-0.4V149.8z M124.4,150.7c-0.7,0-1.1-0.7-1.1-2.2c0-1.4,0.4-2.1,1.1-2.1c0.8,0,1.1,0.7,1.1,2.1
		C125.6,150,125.2,150.7,124.4,150.7z M126.4,146.2c-0.5-0.6-1.2-0.9-2-0.9c-0.8,0-1.5,0.3-2,0.9c-0.5,0.6-0.8,1.4-0.8,2.4
		c0,1,0.3,1.8,0.8,2.4c0.5,0.6,1.2,0.9,2,0.9c0.8,0,1.4-0.3,1.9-0.9c0.5-0.6,0.8-1.4,0.8-2.4C127.2,147.6,126.9,146.8,126.4,146.2z
		 M118.8,146.8c-0.1,0.2-0.3,0.2-0.6,0.2H117v-2.7h1.1c0.3,0,0.5,0.1,0.6,0.3c0.1,0.2,0.2,0.6,0.2,1.2
		C119,146.2,118.9,146.6,118.8,146.8z M118.4,143.1h-3v8.6h1.6v-3.5h1.2c0.9,0,1.5-0.2,1.9-0.6c0.4-0.4,0.6-1,0.6-1.8
		C120.7,143.9,119.9,143.1,118.4,143.1z M111.2,147.6c0-1.4-0.7-2.2-2.1-2.2c-0.6,0-1.2,0.2-1.9,0.5l-0.5-0.5h-0.2v6.2h1.6v-4.5
		c0.3-0.4,0.6-0.6,1.1-0.6c0.4,0,0.6,0.3,0.6,0.8v4.3h1.6V147.6z M103.2,150.3c-0.2,0.2-0.5,0.3-0.9,0.3c-0.2,0-0.4-0.1-0.5-0.2
		c-0.1-0.2-0.2-0.3-0.2-0.5c0-0.4,0.2-0.7,0.6-0.8c0.3-0.1,0.6-0.2,1-0.2v1.2C103.3,150.2,103.3,150.3,103.2,150.3z M104.9,148
		c0-1.8-0.8-2.6-2.4-2.6c-0.8,0-1.4,0.2-1.9,0.5v1.8h0.1c0.2-0.3,0.5-0.5,0.9-0.7c0.4-0.2,0.7-0.3,1-0.3c0.5,0,0.8,0.3,0.8,1v0.2
		c-2.1,0-3.1,0.8-3.1,2.2c0,0.6,0.2,1.1,0.6,1.4c0.3,0.3,0.8,0.4,1.3,0.4c0.7,0,1.4-0.2,2.1-0.6l0.5,0.4h0.2V148z M98.9,147.6
		c0-0.7-0.2-1.3-0.6-1.7c-0.4-0.4-0.8-0.5-1.4-0.5c-0.6,0-1.2,0.2-1.7,0.5c-0.3-0.4-0.7-0.5-1.3-0.5c-0.5,0-1.1,0.2-1.6,0.5
		l-0.5-0.5h-0.2v6.2h1.6v-4.6c0.2-0.4,0.5-0.6,0.8-0.6c0.3,0,0.5,0.3,0.5,0.8v4.4H96v-4.5c0.2-0.4,0.5-0.6,0.8-0.6
		c0.4,0,0.6,0.3,0.6,0.9v4.3h1.5V147.6z M90,145.6h-1.6v4.3c0,0.2-0.1,0.4-0.3,0.5c-0.2,0.2-0.4,0.2-0.6,0.2c-0.5,0-0.8-0.3-0.8-1
		v-4.1h-1.6v3.9c0,1.6,0.8,2.4,2.3,2.4c0.6,0,1.2-0.2,1.8-0.7l0.5,0.5H90V145.6z M83.5,143.1h-1.7v3.6h-2.6v-3.6h-1.7v8.6h1.7v-3.4
		c0-0.2,0.1-0.3,0.2-0.3c0.1,0,0.5-0.1,1.1-0.1c0.6,0,1,0,1.1,0c0.1,0,0.2,0.1,0.2,0.3v3.4h1.7V143.1z M71.2,148.1
		c-0.4,0-0.6,0-0.7,0c0-1.1,0.2-1.6,0.7-1.6c0.3,0,0.4,0.1,0.6,0.4c0.1,0.3,0.2,0.7,0.2,1.2C71.7,148.1,71.5,148.1,71.2,148.1z
		 M73.5,148.4c0-0.9-0.2-1.7-0.7-2.2c-0.4-0.5-1-0.8-1.7-0.8c-0.7,0-1.2,0.3-1.7,0.8c-0.5,0.6-0.8,1.4-0.8,2.4
		c0,1.1,0.3,1.9,0.8,2.5c0.5,0.5,1,0.8,1.7,0.8c0.9,0,1.6-0.3,2-0.8v-1.5h-0.2c-0.6,0.7-1.2,1.1-1.7,1.1c-0.3,0-0.5-0.1-0.7-0.4
		s-0.3-0.7-0.3-1.1h1.3C72.5,149.1,73.1,148.9,73.5,148.4L73.5,148.4z M67.4,147.6c0-1.4-0.6-2.2-1.8-2.2c-0.5,0-1,0.1-1.5,0.3V143
		h-1.5v8.6h1.5v-4.2c0.1-0.2,0.3-0.3,0.5-0.5c0.3-0.2,0.5-0.3,0.7-0.3c0.3,0,0.5,0.2,0.5,0.7v4.3h1.6V147.6z M61.2,149.8H61
		c-0.1,0.2-0.2,0.3-0.4,0.5c-0.1,0.1-0.3,0.2-0.4,0.2c-0.2,0-0.3-0.1-0.3-0.4v-3.2h1.1v-1.3H60V144h-0.3c-0.6,1-1.2,1.8-1.9,2.4v0.4
		h0.6v3c0,1.4,0.5,2.2,1.5,2.2c0.5,0,0.9-0.1,1.2-0.4V149.8z M52.3,150.2c-0.2,0.1-0.4,0.2-0.6,0.2c-0.5,0-0.8-0.6-0.8-1.9
		c0-0.9,0.1-1.4,0.2-1.6c0.1-0.2,0.3-0.3,0.5-0.3c0.2,0,0.3,0,0.5,0.1c0.2,0.1,0.3,0.2,0.4,0.3c0.1,0.2,0.2,0.3,0.2,0.3v2.6
		C52.6,150,52.5,150.1,52.3,150.2z M54.2,145.5H54l-0.6,0.5c-0.7-0.4-1.2-0.6-1.8-0.6c-1,0-1.7,0.4-2.1,1.1
		c-0.2,0.5-0.4,1.2-0.4,2.1c0,1,0.2,1.7,0.5,2.2c0.4,0.5,0.9,0.8,1.7,0.8c0.2,0,0.4,0,0.7-0.1c0.3-0.1,0.4-0.2,0.6-0.3l0.1,1
		c0,0.6-0.2,1-0.7,1c-0.4,0-0.8-0.1-1.2-0.4c-0.3-0.2-0.6-0.5-0.9-0.8h-0.1v1.9c0.5,0.3,1.1,0.4,1.7,0.4c0.8,0,1.5-0.3,1.9-0.9
		c0.5-0.6,0.7-1.4,0.7-2.4V145.5z M47.9,147.6c0-1.4-0.7-2.2-2.1-2.2c-0.6,0-1.2,0.2-1.9,0.5l-0.5-0.5H43v6.2h1.6v-4.5
		c0.3-0.4,0.6-0.6,1.1-0.6c0.4,0,0.6,0.3,0.6,0.8v4.3h1.6V147.6z M41.4,145.6h-1.6v6.1h1.6V145.6z M41.3,143
		c-0.2-0.2-0.4-0.3-0.6-0.3c-0.3,0-0.5,0.1-0.6,0.3c-0.2,0.2-0.2,0.4-0.2,0.7c0,0.3,0.1,0.5,0.2,0.7c0.2,0.2,0.4,0.3,0.6,0.3
		c0.3,0,0.5-0.1,0.6-0.3c0.2-0.2,0.2-0.4,0.2-0.7C41.6,143.4,41.5,143.2,41.3,143z M38.4,145.6h-4.1v1.6l0.1,0.1
		c0.2-0.3,0.5-0.4,1-0.4h0.8l-2.2,4.7l0.1,0.2h4.3v-1.6l-0.1,0c-0.2,0.2-0.3,0.3-0.5,0.3c-0.1,0-0.4,0-0.7,0h-0.9l2.3-4.6
		L38.4,145.6z M32.8,145.6h-1.6v6.1h1.6V145.6z M32.7,143c-0.2-0.2-0.4-0.3-0.6-0.3c-0.3,0-0.5,0.1-0.6,0.3
		c-0.2,0.2-0.2,0.4-0.2,0.7c0,0.3,0.1,0.5,0.2,0.7c0.2,0.2,0.4,0.3,0.6,0.3c0.3,0,0.5-0.1,0.6-0.3c0.2-0.2,0.2-0.4,0.2-0.7
		C33,143.4,32.9,143.2,32.7,143z M29.6,150.2V143h-1.5v7.6c0,0.4,0,0.7,0,0.8c0,0.2,0.1,0.3,0.3,0.3h1.5l0.1-0.1
		C29.7,151.3,29.6,150.9,29.6,150.2z M24.9,150.3c-0.2,0.2-0.5,0.3-0.9,0.3c-0.2,0-0.4-0.1-0.5-0.2c-0.1-0.2-0.2-0.3-0.2-0.5
		c0-0.4,0.2-0.7,0.6-0.8c0.3-0.1,0.6-0.2,1-0.2v1.2C25,150.2,25,150.3,24.9,150.3z M26.5,148c0-1.8-0.8-2.6-2.4-2.6
		c-0.8,0-1.4,0.2-1.9,0.5v1.8h0.1c0.2-0.3,0.5-0.5,0.9-0.7c0.4-0.2,0.7-0.3,1-0.3c0.5,0,0.8,0.3,0.8,1v0.2c-2.1,0-3.1,0.8-3.1,2.2
		c0,0.6,0.2,1.1,0.6,1.4c0.3,0.3,0.8,0.4,1.3,0.4c0.7,0,1.4-0.2,2.1-0.6l0.5,0.4h0.2V148z M18.4,148.1c-0.4,0-0.6,0-0.7,0
		c0-1.1,0.2-1.6,0.7-1.6c0.3,0,0.4,0.1,0.6,0.4c0.1,0.3,0.2,0.7,0.2,1.2C19,148.1,18.7,148.1,18.4,148.1z M20.7,148.4
		c0-0.9-0.2-1.7-0.7-2.2c-0.4-0.5-1-0.8-1.7-0.8c-0.7,0-1.2,0.3-1.7,0.8c-0.5,0.6-0.8,1.4-0.8,2.4c0,1.1,0.3,1.9,0.8,2.5
		c0.5,0.5,1,0.8,1.7,0.8c0.9,0,1.6-0.3,2-0.8v-1.5h-0.2c-0.6,0.7-1.2,1.1-1.7,1.1c-0.3,0-0.5-0.1-0.7-0.4s-0.3-0.7-0.3-1.1H19
		C19.8,149.1,20.4,148.9,20.7,148.4L20.7,148.4z M12.8,146.8c-0.1,0.2-0.3,0.2-0.6,0.2H11v-2.7h1.1c0.3,0,0.5,0.1,0.6,0.3
		c0.1,0.2,0.2,0.6,0.2,1.2C13,146.2,12.9,146.6,12.8,146.8z M15.2,151.5l-2-3.5c1-0.3,1.5-1.1,1.5-2.3c0-1.8-0.8-2.7-2.4-2.7H9.4
		v8.6H11v-3.5h0.7l1.5,3.5h2V151.5z"/>
</g>
</svg>
